<svg width="60" height="60" viewBox="0 0 60 60" fill="none" xmlns="http://www.w3.org/2000/svg">
<rect x="-0.5" y="0.5" width="59" height="59" rx="29.5" transform="matrix(-1 0 0 1 59 0)" fill="white"/>
<rect x="-0.5" y="0.5" width="59" height="59" rx="29.5" transform="matrix(-1 0 0 1 59 0)" stroke="#E3E3E3"/>
<path d="M24.2501 30C24.2547 29.4958 24.4579 29.0137 24.8155 28.6583L28.9267 24.5375C29.1063 24.359 29.3492 24.2588 29.6024 24.2588C29.8555 24.2588 30.0984 24.359 30.278 24.5375C30.3678 24.6266 30.4391 24.7325 30.4878 24.8493C30.5364 24.9661 30.5615 25.0914 30.5615 25.2179C30.5615 25.3444 30.5364 25.4697 30.4878 25.5864C30.4391 25.7032 30.3678 25.8092 30.278 25.8983L27.1251 29.0416H36.7084C36.9626 29.0416 37.2063 29.1426 37.3861 29.3223C37.5658 29.502 37.6667 29.7458 37.6667 30C37.6667 30.2541 37.5658 30.4979 37.3861 30.6776C37.2063 30.8573 36.9626 30.9583 36.7084 30.9583H27.1251L30.278 34.1112C30.4585 34.2904 30.5603 34.5339 30.5612 34.7882C30.5621 35.0426 30.462 35.2868 30.2828 35.4673C30.1036 35.6477 29.8601 35.7496 29.6058 35.7505C29.3515 35.7514 29.1072 35.6512 28.9267 35.4721L24.8155 31.3512C24.4556 30.9934 24.2522 30.5075 24.2501 30Z" fill="#191919"/>
</svg>
