<svg width="10" height="6" viewBox="0 0 10 6" fill="none" xmlns="http://www.w3.org/2000/svg">
<path d="M6.48516 4.83703L9.23677 2.08542C9.40553 1.91658 9.5003 1.68762 9.50024 1.44891C9.50019 1.21019 9.4053 0.981276 9.23647 0.812518C9.06763 0.643761 8.83867 0.548986 8.59995 0.549042C8.36124 0.549098 8.13232 0.643982 7.96356 0.812819L5.21256 3.56442C5.18469 3.59236 5.15159 3.61453 5.11514 3.62965C5.07869 3.64478 5.03962 3.65256 5.00016 3.65256C4.9607 3.65256 4.92163 3.64478 4.88518 3.62965C4.84873 3.61453 4.81563 3.59236 4.78776 3.56442L2.03675 0.812819C1.868 0.643982 1.63908 0.549098 1.40036 0.549042C1.16165 0.548986 0.932688 0.643761 0.763851 0.812518C0.595014 0.981276 0.50013 1.21019 0.500073 1.44891C0.500017 1.68762 0.594792 1.91658 0.76355 2.08542L3.51516 4.83703C3.90938 5.23017 4.44341 5.45094 5.00016 5.45094C5.55691 5.45094 6.09094 5.23017 6.48516 4.83703Z" fill="#191919"/>
</svg>
