<svg width="24" height="24" viewBox="0 0 24 24" fill="none" xmlns="http://www.w3.org/2000/svg">
<path d="M13.2801 17.7396L13.5748 18.4292L13.2801 17.7396ZM10.7199 17.7396L10.4252 18.4292L10.7199 17.7396ZM21.4639 14.9441C21.1569 14.666 20.6826 14.6895 20.4046 14.9966C20.1266 15.3036 20.1501 15.7779 20.4571 16.0559L21.4639 14.9441ZM3.54288 16.0559C3.84992 15.7779 3.87344 15.3036 3.59541 14.9966C3.31738 14.6895 2.84309 14.666 2.53605 14.9441L3.54288 16.0559ZM12.9853 17.0499C12.361 17.3167 11.639 17.3167 11.0147 17.0499L10.4252 18.4292C11.426 18.8569 12.574 18.8569 13.5748 18.4292L12.9853 17.0499ZM4.25 8.51464C4.25 12.3258 6.61289 16.8 10.4252 18.4292L11.0147 17.0499C7.85543 15.6998 5.75 11.843 5.75 8.51464H4.25ZM18.25 8.51464C18.25 11.843 16.1446 15.6998 12.9853 17.0499L13.5748 18.4292C17.3871 16.8 19.75 12.3258 19.75 8.51464H18.25ZM12 2.75C15.5034 2.75 18.25 5.38076 18.25 8.51464H19.75C19.75 4.45264 16.2285 1.25 12 1.25V2.75ZM12 1.25C7.77146 1.25 4.25 4.45264 4.25 8.51464H5.75C5.75 5.38076 8.49655 2.75 12 2.75V1.25ZM13.25 9C13.25 9.69036 12.6904 10.25 12 10.25V11.75C13.5188 11.75 14.75 10.5188 14.75 9H13.25ZM12 10.25C11.3096 10.25 10.75 9.69036 10.75 9H9.25C9.25 10.5188 10.4812 11.75 12 11.75V10.25ZM10.75 9C10.75 8.30964 11.3096 7.75 12 7.75V6.25C10.4812 6.25 9.25 7.48122 9.25 9H10.75ZM12 7.75C12.6904 7.75 13.25 8.30964 13.25 9H14.75C14.75 7.48122 13.5188 6.25 12 6.25V7.75ZM21.25 17.5C21.25 18.2637 20.526 19.2048 18.7633 19.998C17.071 20.7596 14.6805 21.25 12 21.25V22.75C14.8424 22.75 17.4518 22.2331 19.3788 21.3659C21.2354 20.5305 22.75 19.2216 22.75 17.5H21.25ZM12 21.25C9.31951 21.25 6.929 20.7596 5.23671 19.998C3.47401 19.2048 2.75 18.2637 2.75 17.5H1.25C1.25 19.2216 2.76457 20.5305 4.62116 21.3659C6.54815 22.2331 9.15764 22.75 12 22.75V21.25ZM20.4571 16.0559C21.0248 16.57 21.25 17.0621 21.25 17.5H22.75C22.75 16.5011 22.227 15.635 21.4639 14.9441L20.4571 16.0559ZM2.75 17.5C2.75 17.0621 2.97519 16.57 3.54288 16.0559L2.53605 14.9441C1.77305 15.635 1.25 16.5011 1.25 17.5H2.75Z" fill="#96805F"/>
</svg>
