<svg width="24" height="24" viewBox="0 0 24 24" fill="none" xmlns="http://www.w3.org/2000/svg">
<path d="M14 2C14 2 16.2 2.2 19 5C21.8 7.8 22 10 22 10M14.207 5.53564C14.207 5.53564 15.197 5.81849 16.6819 7.30341C18.1668 8.78834 18.4497 9.77829 18.4497 9.77829M10.1147 9.8278C10.1146 9.82792 8.99588 10.9468 11.0245 12.9755C13.0525 15.0035 14.1714 13.8861 14.1722 13.8853M10.1147 9.8278C11.0372 8.90533 11.2723 7.52858 10.6866 6.4791L10.0376 5.31617C9.15317 3.73144 6.93076 3.54428 5.53781 4.93723C4.7008 5.77423 4.04952 6.7996 4.00655 7.93309C3.93421 9.84122 4.41713 13.0817 7.6677 16.3323C10.9183 19.5829 14.1588 20.0658 16.0669 19.9934C17.2004 19.9505 18.2258 19.2992 19.0628 18.4622C20.4557 17.0692 20.2686 14.8468 18.6838 13.9624L17.5209 13.3134C16.4714 12.7277 15.0947 12.9628 14.1722 13.8853M10.1147 9.8278C10.1147 9.8278 10.1147 9.82781 10.1147 9.8278ZM14.1722 13.8853C14.1722 13.8853 14.1722 13.8853 14.1722 13.8853Z" stroke="#96805F" stroke-width="1.5" stroke-linecap="round"/>
</svg>
